<svg xmlns="http://www.w3.org/2000/svg" viewBox="0 0 179.58667 159.48" height="159.48" width="179.587"><path d="M119.44.007S117.67 11.71 107.964 16.1c-11.52 5.213-41.932 7.58-56.7 22.35C36.49 53.22 36.78 70.02 36.78 70.02s-7.53-2.03-16.58-2.61c-9.47-.605-16.435-5.213-20.2-8.397 0 0 4.922 11.727 8.398 24.035 5.672 20.09 9.715 32.713 39.832 35.984 0 0 18.588 40.852 63.292 40.445 40.823-.37 68.06-31.76 68.06-68.533 0-52.866-49.762-67.557-49.762-67.557s-2.518-18.97-10.38-23.38" fill="#fff"/><path d="M88.04 113.92c-1.74.943-4.418 2.318-5.07 2.753-1.665 1.232-1.882 2.606-1.882 5.864 0 2.318 0 4.417 2.896 4.417 3.765 0 4.055-2.46 4.055-4.995zm11.512 13.323c0 3.55.362 4.42 1.664 6.01H88.04v-3.257c-2.463 2.17-4.997 4.344-9.63 4.344-9.197 0-9.197-7.46-9.197-9.993 0-9.122 3.62-10.643 9.123-12.815 5.865-2.172 6.517-2.463 9.703-3.982 0-3.403 0-3.476-.22-4.127-.723-1.883-2.46-1.883-3.185-1.883-3.257 0-3.257 2.172-3.257 6.01h-11.08c-.144-5.36-.29-13.83 14.048-13.83 3.186 0 7.313.435 10.282 1.955 4.924 2.607 4.924 7.313 4.924 9.847zm73.475-38.84c-.192-28.324-20.234-52.007-47.277-58.82 1.374 36.65-31.583 51.48-44.088 57.467-14.855 7.112-17.417 17.206-17.417 17.206-14.71-22.1.22-43.482 12.72-51.4-31.533 16.332-24.397 53.236-22.217 63.61 10.218 19.933 30.862 33.743 55.395 33.576.454-.002.904-.03 1.357-.043-1.782-.5-3.21-1.215-4.32-2.192-3.333-2.968-3.188-7.17-3.042-10.5h11.513c0 3.477 0 4.49.94 5.432.436.505 1.233.868 2.392.868 3.693 0 3.693-3.04 3.693-4.418v-9.194c-1.086 1.81-2.68 4.273-8.473 4.273-9.63 0-10.064-7.605-10.064-11.225v-17.088c0-4.344.507-7.313 2.1-9.196.65-.796 2.895-3.113 7.746-3.113 5.867 0 7.676 3.04 8.69 4.705v-3.62h11.657v41.78c0 3.148-.055 6.682-1.907 9.454 23.888-8.888 40.777-31.356 40.604-57.564zm-50.352 17.48c0-1.158 0-4.127-3.404-4.127-3.62 0-3.62 3.258-3.62 4.417V122.9c0 .723 0 3.692 3.403 3.692 3.622 0 3.622-3.547 3.622-4.49zm52.033-14.98c.232 35.2-27.91 63.924-62.866 64.16-28.368.19-52.503-18.444-60.72-44.29-33.017-66.06 17.053-81.65 41.946-86.462 25.823-4.997 26.553-12.42 27.935-17.718 2.98 8.35 4.443 15.873 4.735 22.655 27.89 6.503 48.77 31.568 48.97 61.655zm-124.45 24.22s-29.406.654-35.777-23.963C6.893 67.243 6.66 67.41 6.66 67.41S11.257 71 20.85 71.175c9.588.177 16.797 2.896 16.797 2.896s0 10.717 3.36 20.025c-2.882-1.17-9.88-8.56-10.853-10.706-.972-2.152 5.824 10.983 13.05 16.45 1.458 3.343 4.137 9.557 7.05 15.283" fill="#1d2953"/></svg>