<svg xmlns="http://www.w3.org/2000/svg" viewBox="0 0 178.77333 170.02667" height="170.027" width="178.773"><path d="M157.867 94.79c-3.83 0-3.83 4.08-3.83 5.84v20.767c0 1.762 0 4.823 3.83 4.823s3.83-3.894 3.83-5.563v-20.304c0-2.04 0-5.562-3.83-5.562" fill="#fff"/><path d="M174.77 119.73c0 5.377 0 16.966-16.82 16.966-4.747 0-9.078-1.02-12.325-3.708-4.414-3.523-4.665-8.252-4.665-13.908v-16.966c0-6.21 0-17.43 16.823-17.43 16.988 0 16.988 11.31 16.988 16.318zm-35.833-22.067c-5.745 0-5.995 0-7.16.28-4.832 1.11-5 5.748-5 8.992v28.278h-13.322V85.98h13.323v7.234c2.5-5.562 4.665-7.696 12.16-8.346zm-29.193 22.344c0 9.642-2.166 16.502-10.993 16.502-6.66 0-9.075-3.522-10.657-5.84v21.88h-13.24V85.98h13.24v5.287C89.84 88.392 92.173 84.59 99 84.59c1.333 0 5.498.093 8.33 3.896.58.833 2.414 3.245 2.414 9.177zM71.06 81.197v49.672l-14.61 25.02L49.33 49.6 42.57 155.89 4.586 85.76 49.693 7.964l42.55 73.232zm104.995 7.673c-3.34-5.433-9.49-8.187-18.272-8.187-7.088 0-11.763 1.805-14.846 4.416v-4.594l-4.345.377c-3.276.285-5.796.887-7.814 1.826v-.73h-21.323v2.833c-2.04-2.146-5.336-4.222-10.454-4.222-.847 0-1.646.05-2.4.14L49.69-.005 0 85.695l45.68 84.332 3.752-59.032 3.9 58.17 17.52-30.008v17.393h21.24v-17.247c1.794.732 3.98 1.206 6.66 1.206 5.115 0 8.484-1.795 10.703-4.364v3.067h21.323v-32.278c0-4.345.716-4.825 1.897-5.095.602-.144.714-.172 4.285-.175v17.415c0 5.104 0 12.09 6.143 17.012 3.705 3.054 8.7 4.604 14.846 4.604 20.82 0 20.82-15.78 20.82-20.966v-18.728c0-2.696 0-7.715-2.715-12.132" fill="#fff"/><path d="M92.497 95.12c-.766 0-1.503.295-2.19.822-1.052.478-1.604 1.328-1.893 2.24-1.734 2.9-2.866 7.585-2.866 12.887 0 8.807 3.11 15.95 6.95 15.95 3.835 0 6.945-7.143 6.945-15.95 0-8.81-3.11-15.95-6.946-15.95" fill="#fff"/><path d="M42.57 155.89L49.328 49.6 56.45 155.89l14.61-25.02V81.195h21.184L49.694 7.964 4.585 85.762zm119.127-55.537c0-2.04 0-5.562-3.83-5.562s-3.83 4.08-3.83 5.84v20.767c0 1.762 0 4.823 3.83 4.823s3.83-3.894 3.83-5.563zm-20.737 1.76c0-6.21 0-17.43 16.823-17.43 16.988 0 16.988 11.312 16.988 16.32v18.727c0 5.377 0 16.966-16.82 16.966-4.747 0-9.078-1.02-12.325-3.708-4.414-3.523-4.665-8.252-4.665-13.908zm-14.182-8.9c2.5-5.56 4.665-7.695 12.16-8.345v12.795c-5.746 0-5.996 0-7.16.28-4.833 1.11-5 5.748-5 8.992v28.278h-13.323V85.98h13.323zm-38.685 26.702c0 1.948 0 6.12 4.246 6.12 4.248 0 4.248-4.45 4.248-6.12v-18.728c0-1.668 0-5.655-4.166-5.655-4.33 0-4.33 3.708-4.33 5.47zm21.65.092c0 9.642-2.165 16.502-10.992 16.502-6.66 0-9.075-3.522-10.657-5.84v21.88h-13.24V85.98h13.24v5.287C89.84 88.392 92.173 84.59 99 84.59c1.333 0 5.498.093 8.33 3.896.58.833 2.414 3.245 2.414 9.177v22.344" fill="#1d2953"/></svg>